<svg width="170" height="71" viewBox="0 0 170 71" fill="none" xmlns="http://www.w3.org/2000/svg">
<path d="M15.714 32.0093L18.8156 32.397V59.6647H16.1017L15.8063 57.0985C15.0802 58.1324 14.2433 58.8893 13.2956 59.3693C12.3602 59.8493 11.3571 60.0893 10.2863 60.0893C8.60019 60.0893 7.20942 59.6647 6.11404 58.8154C5.01865 57.9662 4.20634 56.7847 3.67711 55.2708C3.14788 53.7447 2.88327 51.9785 2.88327 49.9724C2.88327 48.0278 3.18481 46.2924 3.78788 44.7662C4.39096 43.2278 5.25865 42.0216 6.39096 41.1478C7.53557 40.2616 8.90788 39.8185 10.5079 39.8185C11.6279 39.8185 12.6125 40.0154 13.4617 40.4093C14.311 40.7908 15.0617 41.357 15.714 42.1078V32.0093ZM11.3202 42.3108C9.69557 42.3108 8.44634 42.9447 7.5725 44.2124C6.69865 45.4801 6.26173 47.4001 6.26173 49.9724C6.26173 51.6462 6.44019 53.0493 6.79711 54.1816C7.15404 55.3139 7.67711 56.1631 8.36634 56.7293C9.06788 57.2954 9.92327 57.5785 10.9325 57.5785C12.0402 57.5785 12.9817 57.2647 13.7571 56.637C14.5448 56.0093 15.1971 55.3016 15.714 54.5139V44.8031C15.1848 44.0154 14.5448 43.4062 13.794 42.9754C13.0433 42.5324 12.2187 42.3108 11.3202 42.3108ZM27.5886 51.0431C27.6502 52.5447 27.9394 53.7754 28.4563 54.7354C28.9732 55.6831 29.6563 56.3847 30.5056 56.8401C31.3548 57.2831 32.2779 57.5047 33.2748 57.5047C34.2717 57.5047 35.1702 57.357 35.9702 57.0616C36.7825 56.7662 37.6132 56.3293 38.4625 55.7508L39.9209 57.8001C39.0102 58.5139 37.9702 59.0739 36.8009 59.4801C35.644 59.8862 34.4563 60.0893 33.2379 60.0893C31.3548 60.0893 29.7486 59.6647 28.4194 58.8154C27.0902 57.9662 26.0748 56.7847 25.3732 55.2708C24.684 53.7447 24.3394 51.9785 24.3394 49.9724C24.3394 48.0031 24.6902 46.2554 25.3917 44.7293C26.0932 43.2031 27.0779 42.0031 28.3456 41.1293C29.6132 40.2554 31.1086 39.8185 32.8317 39.8185C34.4686 39.8185 35.8779 40.2062 37.0594 40.9816C38.2409 41.7447 39.1455 42.8401 39.7732 44.2678C40.4132 45.6831 40.7332 47.3754 40.7332 49.3447C40.7332 49.677 40.7271 49.9908 40.7148 50.2862C40.7025 50.5693 40.684 50.8216 40.6594 51.0431H27.5886ZM32.8686 42.3662C31.4286 42.3662 30.2225 42.877 29.2502 43.8985C28.2902 44.9201 27.7425 46.5016 27.6071 48.6431H37.7425C37.7055 46.5631 37.2502 45.0001 36.3763 43.9539C35.5025 42.8954 34.3332 42.3662 32.8686 42.3662ZM62.4294 40.2247L55.3586 59.6647H51.7586L44.7432 40.2247H48.0294L53.6601 56.8401L59.2171 40.2247H62.4294Z" fill="#D6D3D1"/>
<path d="M70.3901 32.1016V42.8831C71.1532 41.8616 72.0886 41.0985 73.1963 40.5939C74.3163 40.077 75.4486 39.8185 76.5932 39.8185C78.4886 39.8185 79.8732 40.3231 80.747 41.3324C81.6209 42.3416 82.0578 43.7447 82.0578 45.5416V59.6647H78.9563V45.6154C78.9563 44.4462 78.6855 43.597 78.144 43.0678C77.6024 42.5262 76.7532 42.2554 75.5963 42.2554C74.8578 42.2554 74.1563 42.4216 73.4917 42.7539C72.827 43.0862 72.2301 43.4985 71.7009 43.9908C71.1717 44.4831 70.7347 44.9878 70.3901 45.5047V59.6647H67.2886V32.4339L70.3901 32.1016ZM95.7601 39.8185C97.5939 39.8185 99.1262 40.237 100.357 41.0739C101.6 41.8985 102.529 43.0678 103.145 44.5816C103.772 46.0954 104.086 47.8801 104.086 49.9354C104.086 51.917 103.766 53.6708 103.126 55.197C102.486 56.7231 101.545 57.9231 100.302 58.797C99.0709 59.6585 97.5447 60.0893 95.7232 60.0893C93.9016 60.0893 92.3693 59.6708 91.1262 58.8339C89.8832 57.997 88.9416 56.8216 88.3016 55.3077C87.6739 53.7816 87.3601 52.0031 87.3601 49.9724C87.3601 47.9662 87.6801 46.2001 88.3201 44.6739C88.9601 43.1478 89.9016 41.9601 91.1447 41.1108C92.4001 40.2493 93.9386 39.8185 95.7601 39.8185ZM95.7601 42.3477C94.0862 42.3477 92.8186 42.9693 91.957 44.2124C91.1078 45.4431 90.6832 47.3631 90.6832 49.9724C90.6832 52.5324 91.1016 54.4339 91.9386 55.677C92.7878 56.9201 94.0493 57.5416 95.7232 57.5416C97.397 57.5416 98.6524 56.9201 99.4893 55.677C100.339 54.4339 100.763 52.5201 100.763 49.9354C100.763 47.3508 100.345 45.4431 99.5078 44.2124C98.6709 42.9693 97.4216 42.3477 95.7601 42.3477ZM112.527 40.2247V53.997C112.527 55.277 112.792 56.2001 113.321 56.7662C113.85 57.3324 114.675 57.6154 115.795 57.6154C116.865 57.6154 117.875 57.3139 118.822 56.7108C119.782 56.0954 120.527 55.3693 121.056 54.5324V40.2247H124.158V59.6647H121.518L121.259 57.0431C120.496 58.0277 119.555 58.7847 118.435 59.3139C117.315 59.8308 116.182 60.0893 115.038 60.0893C113.155 60.0893 111.745 59.5908 110.81 58.5939C109.887 57.5847 109.425 56.1754 109.425 54.3662V40.2247H112.527ZM137.103 57.5231C138.592 57.5231 139.768 57.2462 140.629 56.6924C141.503 56.1262 141.94 55.3754 141.94 54.4401C141.94 53.8493 141.829 53.3385 141.608 52.9078C141.399 52.477 140.962 52.0893 140.297 51.7447C139.632 51.4001 138.611 51.0554 137.232 50.7108C135.891 50.3785 134.722 49.997 133.725 49.5662C132.74 49.1231 131.971 48.5508 131.417 47.8493C130.875 47.1478 130.605 46.237 130.605 45.117C130.605 44.0216 130.912 43.0801 131.528 42.2924C132.155 41.4924 133.023 40.8831 134.131 40.4647C135.239 40.0339 136.525 39.8185 137.989 39.8185C139.552 39.8185 140.912 40.0278 142.069 40.4462C143.239 40.8524 144.229 41.357 145.042 41.9601L143.675 44.0647C142.937 43.5601 142.125 43.1478 141.239 42.8278C140.352 42.4954 139.282 42.3293 138.026 42.3293C136.5 42.3293 135.417 42.5693 134.777 43.0493C134.137 43.517 133.817 44.1262 133.817 44.877C133.817 45.4431 133.971 45.917 134.279 46.2985C134.599 46.6678 135.134 47.0062 135.885 47.3139C136.635 47.6093 137.669 47.9354 138.986 48.2924C140.254 48.6247 141.355 49.0247 142.291 49.4924C143.239 49.9601 143.977 50.5754 144.506 51.3385C145.035 52.1016 145.3 53.0862 145.3 54.2924C145.3 55.6708 144.906 56.7908 144.119 57.6524C143.331 58.5016 142.309 59.1231 141.054 59.517C139.811 59.8985 138.494 60.0893 137.103 60.0893C135.343 60.0893 133.842 59.837 132.599 59.3324C131.368 58.8154 130.334 58.1939 129.497 57.4677L131.269 55.4185C132.032 56.0462 132.906 56.557 133.891 56.9508C134.888 57.3324 135.959 57.5231 137.103 57.5231ZM153.999 51.0431C154.061 52.5447 154.35 53.7754 154.867 54.7354C155.384 55.6831 156.067 56.3847 156.916 56.8401C157.765 57.2831 158.688 57.5047 159.685 57.5047C160.682 57.5047 161.581 57.357 162.381 57.0616C163.193 56.7662 164.024 56.3293 164.873 55.7508L166.332 57.8001C165.421 58.5139 164.381 59.0739 163.212 59.4801C162.055 59.8862 160.867 60.0893 159.648 60.0893C157.765 60.0893 156.159 59.6647 154.83 58.8154C153.501 57.9662 152.485 56.7847 151.784 55.2708C151.095 53.7447 150.75 51.9785 150.75 49.9724C150.75 48.0031 151.101 46.2554 151.802 44.7293C152.504 43.2031 153.488 42.0031 154.756 41.1293C156.024 40.2554 157.519 39.8185 159.242 39.8185C160.879 39.8185 162.288 40.2062 163.47 40.9816C164.652 41.7447 165.556 42.8401 166.184 44.2678C166.824 45.6831 167.144 47.3754 167.144 49.3447C167.144 49.677 167.138 49.9908 167.125 50.2862C167.113 50.5693 167.095 50.8216 167.07 51.0431H153.999ZM159.279 42.3662C157.839 42.3662 156.633 42.877 155.661 43.8985C154.701 44.9201 154.153 46.5016 154.018 48.6431H164.153C164.116 46.5631 163.661 45.0001 162.787 43.9539C161.913 42.8954 160.744 42.3662 159.279 42.3662Z" fill="#16A34A"/>
<path d="M39.3936 33.6647V21.6647H41.1748V23.5397H41.3311C41.5811 22.899 41.9847 22.4017 42.542 22.0475C43.0993 21.6881 43.7686 21.5084 44.5498 21.5084C45.3415 21.5084 46.0004 21.6881 46.5264 22.0475C47.0577 22.4017 47.4717 22.899 47.7686 23.5397H47.8936C48.2009 22.9199 48.6618 22.4277 49.2764 22.0631C49.891 21.6933 50.628 21.5084 51.4873 21.5084C52.5603 21.5084 53.4379 21.8444 54.1202 22.5162C54.8024 23.1829 55.1436 24.222 55.1436 25.6334V33.6647H53.2998V25.6334C53.2998 24.748 53.0577 24.1152 52.5733 23.735C52.0889 23.3548 51.5186 23.1647 50.8623 23.1647C50.0186 23.1647 49.3649 23.4199 48.9014 23.9303C48.4379 24.4355 48.2061 25.0761 48.2061 25.8522V33.6647H46.3311V25.4459C46.3311 24.7636 46.1097 24.2142 45.667 23.7975C45.2243 23.3756 44.654 23.1647 43.9561 23.1647C43.4769 23.1647 43.029 23.2923 42.6123 23.5475C42.2009 23.8027 41.8676 24.1569 41.6123 24.61C41.3623 25.0579 41.2373 25.5761 41.2373 26.1647V33.6647H39.3936ZM58.6125 38.1647C58.3 38.1647 58.0214 38.1386 57.7766 38.0865C57.5318 38.0397 57.3625 37.9928 57.2687 37.9459L57.7375 36.3209C58.1854 36.4355 58.5812 36.4772 58.925 36.4459C59.2687 36.4147 59.5734 36.261 59.8391 35.985C60.1099 35.7142 60.3573 35.274 60.5812 34.6647L60.925 33.7272L56.4875 21.6647H58.4875L61.8 31.2272H61.925L65.2375 21.6647H67.2375L62.1437 35.4147C61.9146 36.0345 61.6307 36.5475 61.2922 36.9537C60.9536 37.3652 60.5604 37.6699 60.1125 37.8678C59.6698 38.0657 59.1698 38.1647 58.6125 38.1647ZM83.0386 24.3522L81.3823 24.8209C81.2782 24.5449 81.1245 24.2767 80.9214 24.0162C80.7235 23.7506 80.4527 23.5319 80.1089 23.36C79.7652 23.1881 79.3251 23.1022 78.7886 23.1022C78.0542 23.1022 77.4422 23.2714 76.9527 23.61C76.4683 23.9433 76.2261 24.3678 76.2261 24.8834C76.2261 25.3418 76.3928 25.7037 76.7261 25.9694C77.0594 26.235 77.5803 26.4563 78.2886 26.6334L80.0698 27.0709C81.1428 27.3313 81.9422 27.7298 82.4683 28.2662C82.9943 28.7975 83.2573 29.4824 83.2573 30.3209C83.2573 31.0084 83.0594 31.623 82.6636 32.1647C82.273 32.7063 81.7261 33.1334 81.023 33.4459C80.3198 33.7584 79.5021 33.9147 78.5698 33.9147C77.3459 33.9147 76.3329 33.649 75.5308 33.1178C74.7287 32.5865 74.2209 31.8105 74.0073 30.7897L75.7573 30.3522C75.924 30.998 76.2391 31.4824 76.7027 31.8053C77.1714 32.1282 77.7834 32.2897 78.5386 32.2897C79.398 32.2897 80.0803 32.1074 80.5855 31.7428C81.0959 31.373 81.3511 30.9303 81.3511 30.4147C81.3511 29.998 81.2053 29.649 80.9136 29.3678C80.6219 29.0813 80.174 28.8678 79.5698 28.7272L77.5698 28.2584C76.4709 27.998 75.6636 27.5944 75.148 27.0475C74.6376 26.4954 74.3823 25.8053 74.3823 24.9772C74.3823 24.3001 74.5724 23.7011 74.9527 23.1803C75.3381 22.6595 75.8615 22.2506 76.523 21.9537C77.1896 21.6569 77.9448 21.5084 78.7886 21.5084C79.9761 21.5084 80.9084 21.7688 81.5855 22.2897C82.2678 22.8105 82.7521 23.498 83.0386 24.3522ZM88.904 33.9459C88.1436 33.9459 87.4535 33.8027 86.8337 33.5162C86.2139 33.2246 85.7217 32.8053 85.3571 32.2584C84.9925 31.7063 84.8102 31.0397 84.8102 30.2584C84.8102 29.5709 84.9457 29.0136 85.2165 28.5865C85.4873 28.1543 85.8493 27.8157 86.3024 27.5709C86.7555 27.3261 87.2555 27.1438 87.8024 27.024C88.3545 26.899 88.9092 26.8001 89.4665 26.7272C90.1957 26.6334 90.7868 26.5631 91.2399 26.5162C91.6983 26.4642 92.0316 26.3782 92.2399 26.2584C92.4535 26.1386 92.5602 25.9303 92.5602 25.6334V25.5709C92.5602 24.8001 92.3493 24.2011 91.9274 23.774C91.5108 23.347 90.8779 23.1334 90.029 23.1334C89.1488 23.1334 88.4587 23.3261 87.9587 23.7115C87.4587 24.097 87.1071 24.5084 86.904 24.9459L85.154 24.3209C85.4665 23.5918 85.8832 23.024 86.404 22.6178C86.93 22.2063 87.5029 21.9199 88.1227 21.7584C88.7477 21.5918 89.3623 21.5084 89.9665 21.5084C90.3519 21.5084 90.7946 21.5553 91.2946 21.649C91.7998 21.7376 92.2868 21.9225 92.7555 22.2037C93.2295 22.485 93.6227 22.9095 93.9352 23.4772C94.2477 24.0449 94.404 24.8053 94.404 25.7584V33.6647H92.5602V32.0397H92.4665C92.3415 32.3001 92.1332 32.5787 91.8415 32.8756C91.5498 33.1725 91.1618 33.4251 90.6774 33.6334C90.193 33.8418 89.6019 33.9459 88.904 33.9459ZM89.1852 32.2897C89.9144 32.2897 90.529 32.1464 91.029 31.86C91.5342 31.5735 91.9144 31.2037 92.1696 30.7506C92.43 30.2975 92.5602 29.8209 92.5602 29.3209V27.6334C92.4821 27.7272 92.3102 27.8131 92.0446 27.8912C91.7842 27.9642 91.4821 28.0293 91.1384 28.0865C90.7998 28.1386 90.4691 28.1855 90.1462 28.2272C89.8285 28.2636 89.5707 28.2949 89.3727 28.3209C88.8936 28.3834 88.4457 28.485 88.029 28.6256C87.6175 28.761 87.2842 28.9668 87.029 29.2428C86.779 29.5136 86.654 29.8834 86.654 30.3522C86.654 30.9928 86.891 31.4772 87.3649 31.8053C87.8441 32.1282 88.4509 32.2897 89.1852 32.2897ZM102.453 21.6647V23.2272H95.9842V21.6647H102.453ZM97.9217 33.6647V20.0084C97.9217 19.3209 98.0832 18.748 98.4061 18.2897C98.729 17.8313 99.1483 17.4876 99.6639 17.2584C100.18 17.0293 100.724 16.9147 101.297 16.9147C101.75 16.9147 102.12 16.9511 102.406 17.024C102.693 17.097 102.906 17.1647 103.047 17.2272L102.515 18.8209C102.422 18.7897 102.292 18.7506 102.125 18.7037C101.963 18.6569 101.75 18.6334 101.484 18.6334C100.875 18.6334 100.435 18.7871 100.164 19.0944C99.8983 19.4017 99.7655 19.8522 99.7655 20.4459V33.6647H97.9217ZM108.914 33.9147C107.758 33.9147 106.76 33.6595 105.922 33.149C105.089 32.6334 104.445 31.9147 103.992 30.9928C103.544 30.0657 103.32 28.9876 103.32 27.7584C103.32 26.5293 103.544 25.4459 103.992 24.5084C104.445 23.5657 105.076 22.8313 105.883 22.3053C106.695 21.774 107.643 21.5084 108.727 21.5084C109.352 21.5084 109.969 21.6126 110.578 21.8209C111.188 22.0293 111.742 22.3678 112.242 22.8365C112.742 23.3001 113.141 23.9147 113.438 24.6803C113.734 25.4459 113.883 26.3886 113.883 27.5084V28.2897H104.633V26.6959H112.008C112.008 26.0188 111.872 25.4147 111.602 24.8834C111.336 24.3522 110.956 23.9329 110.461 23.6256C109.971 23.3183 109.393 23.1647 108.727 23.1647C107.992 23.1647 107.357 23.347 106.82 23.7115C106.289 24.0709 105.88 24.5397 105.594 25.1178C105.307 25.6959 105.164 26.3157 105.164 26.9772V28.0397C105.164 28.9459 105.32 29.7142 105.633 30.3444C105.951 30.9694 106.391 31.4459 106.953 31.774C107.516 32.097 108.169 32.2584 108.914 32.2584C109.398 32.2584 109.836 32.1907 110.227 32.0553C110.622 31.9147 110.964 31.7063 111.25 31.4303C111.536 31.149 111.758 30.8001 111.914 30.3834L113.695 30.8834C113.508 31.4876 113.193 32.0188 112.75 32.4772C112.307 32.9303 111.76 33.2845 111.109 33.5397C110.458 33.7897 109.727 33.9147 108.914 33.9147Z" fill="#D6D3D1"/>
<path d="M167.779 30.5962H166.08V3.81126L168.134 3.36945C168.357 3.32764 168.569 3.24162 168.758 3.11647C168.948 2.99132 169.11 2.82956 169.235 2.64074C169.361 2.45192 169.448 2.23985 169.49 2.01703C169.532 1.79422 169.53 1.56517 169.482 1.34338C169.435 1.1216 169.343 0.911564 169.213 0.725669C169.083 0.539774 168.918 0.381776 168.726 0.26099C168.534 0.140204 168.319 0.059074 168.096 0.0223821C167.872 -0.0143098 167.643 -0.00582094 167.422 0.0473485L119.842 10.2431C119.433 10.3315 119.07 10.5684 118.824 10.9082C118.578 11.2479 118.467 11.6666 118.511 12.0836C118.555 12.5005 118.752 12.8864 119.064 13.167C119.376 13.4476 119.78 13.603 120.199 13.6034C120.32 13.6032 120.44 13.5904 120.558 13.5652L121.899 13.2784V30.5962H120.199C119.749 30.5962 119.316 30.7753 118.998 31.094C118.679 31.4126 118.5 31.8449 118.5 32.2955C118.5 32.7462 118.679 33.1784 118.998 33.4971C119.316 33.8158 119.749 33.9948 120.199 33.9948H167.779C168.23 33.9948 168.662 33.8158 168.981 33.4971C169.299 33.1784 169.479 32.7462 169.479 32.2955C169.479 31.8449 169.299 31.4126 168.981 31.094C168.662 30.7753 168.23 30.5962 167.779 30.5962ZM125.297 12.5413L162.681 4.53983V30.5962H157.584V18.7013C157.584 18.2506 157.404 17.8184 157.086 17.4997C156.767 17.181 156.335 17.002 155.884 17.002H132.094C131.644 17.002 131.211 17.181 130.893 17.4997C130.574 17.8184 130.395 18.2506 130.395 18.7013V30.5962H125.297V12.5413ZM154.185 23.7991H133.794V20.4005H154.185V23.7991ZM133.794 27.1977H154.185V30.5962H133.794V27.1977Z" fill="#16A34A"/>
</svg>
